<svg width="601" height="180" viewBox="0 0 601 180" fill="none" xmlns="http://www.w3.org/2000/svg">
<path d="M69.45 114.8H34.65L24.3 146H2.25L39.6 42.5H65.55L102.15 146H79.65L69.45 114.8ZM52.2 60.2L39.9 98.45H64.2L52.2 60.2ZM153.717 64.1C176.067 64.1 189.267 81.05 189.267 104.6C189.267 133.4 171.567 148.1 151.017 148.1C144.417 148.1 136.317 146.45 132.267 143.6L127.017 135.35V146H106.317V35.75H127.017V78.35L133.017 69.65C137.517 66.05 145.617 64.1 153.717 64.1ZM146.967 133.55C158.967 133.55 167.817 124.4 167.817 105.95C167.817 89.6 160.017 78.65 147.717 78.65C136.317 78.65 127.017 85.7 127.017 105.2V108.95C127.017 127.1 137.367 133.55 146.967 133.55ZM345.805 66.2V146H325.105V132.5L318.955 142.7C313.105 146.6 307.405 148.1 299.755 148.1C283.255 148.1 273.355 138.8 271.555 127.85C270.955 123.8 270.805 119.75 270.805 113.3V66.2H291.505V108.95C291.505 111.5 291.655 115.85 292.105 119.9C293.155 128.15 297.955 133.4 307.555 133.4C317.905 133.4 325.105 124.85 325.105 106.85V66.2H345.805ZM385.13 80.45V117.35C385.13 120.05 385.13 122.3 385.28 124.4C385.88 132.2 388.73 134 400.28 133.1V146.6C395.63 147.35 391.28 147.65 386.63 147.65C371.18 147.65 365.63 142.55 364.73 131.3C364.43 127.7 364.43 124.25 364.43 119.75V80.45H352.73V66.8H364.43V47.15H385.13V66.8H401.63V80.45H385.13ZM522.629 42.5V103.85C522.629 108.2 522.629 111.2 522.329 116C520.979 133.25 508.979 148.1 480.029 148.1C450.929 148.1 438.929 133.25 437.579 116C437.279 111.2 437.279 108.2 437.279 103.85V42.5H457.829V105.95C457.829 108.95 457.829 111.2 458.129 113.45C459.029 125.3 466.229 132.65 480.029 132.65C493.679 132.65 500.879 125.3 501.779 113.45C502.079 111.2 502.079 108.95 502.079 105.95V42.5H522.629ZM564.052 64.1C583.102 64.1 593.902 74.75 595.702 89.3H575.002C573.652 81.95 569.602 77.75 562.702 77.75C556.552 77.75 553.252 81.35 553.252 86.3C553.252 92.3 558.202 95.45 571.402 98.75C587.752 102.95 597.352 109.55 597.352 124.25C597.352 140.3 582.802 148.1 564.502 148.1C545.152 148.1 531.502 139.7 529.252 121.7H549.952C551.602 130.4 557.602 134.45 564.802 134.45C571.402 134.45 576.502 131.6 576.502 125.75C576.502 119.6 571.252 116.15 557.452 112.7C542.602 108.95 532.402 102.5 532.402 88.7C532.402 73.4 545.002 64.1 564.052 64.1Z" fill="#0E091F"/>
<path d="M248.417 110.482C239.495 117.13 241.45 132.722 243.795 126.023C248.149 129.842 243.491 119.322 251.097 112.893C260.475 104.967 265.097 84.8245 260.475 85.4274C256.724 87.839 258.217 103.18 248.417 110.482Z" fill="white"/>
<path d="M213.785 109.477C221.85 115.694 222.538 132.94 219.479 125.555C215.522 131.252 218.072 119.325 212.043 113.162C202.643 107.668 199.176 86.3857 203.87 85.8968C208.534 87.3803 204.921 102.644 213.785 109.477Z" fill="white"/>
<path d="M249.622 79.4651C249.622 83.7568 253.102 87.2359 257.393 87.2359C261.685 87.2359 265.164 83.7568 265.164 79.4651C265.164 75.1734 261.685 71.6943 257.393 71.6943C253.102 71.6943 249.622 75.1734 249.622 79.4651ZM262.716 79.4651C262.716 82.4048 260.333 84.7879 257.393 84.7879C254.454 84.7879 252.07 82.4048 252.07 79.4651C252.07 76.5254 254.454 74.1423 257.393 74.1423C260.333 74.1423 262.716 76.5254 262.716 79.4651Z" fill="#40CAFD"/>
<path d="M228.718 98.6243C228.718 102.916 232.197 106.395 236.489 106.395C240.781 106.395 244.26 102.916 244.26 98.6243C244.26 94.3326 240.781 90.8535 236.489 90.8535C232.197 90.8535 228.718 94.3326 228.718 98.6243ZM241.812 98.6243C241.812 101.564 239.429 103.947 236.489 103.947C233.549 103.947 231.166 101.564 231.166 98.6243C231.166 95.6846 233.549 93.3015 236.489 93.3015C239.429 93.3015 241.812 95.6846 241.812 98.6243Z" fill="#40CAFD"/>
<path d="M217.601 82.5472C217.601 86.8389 221.08 90.318 225.372 90.318C229.663 90.318 233.143 86.8389 233.143 82.5472C233.143 78.2555 229.663 74.7764 225.372 74.7764C221.08 74.7764 217.601 78.2555 217.601 82.5472ZM230.695 82.5472C230.695 85.4869 228.311 87.87 225.372 87.87C222.432 87.87 220.049 85.4869 220.049 82.5472C220.049 79.6075 222.432 77.2244 225.372 77.2244C228.311 77.2244 230.695 79.6075 230.695 82.5472Z" fill="white"/>
<path d="M196.302 79.4651C196.302 83.7568 199.781 87.2359 204.073 87.2359C208.365 87.2359 211.844 83.7568 211.844 79.4651C211.844 75.1734 208.365 71.6943 204.073 71.6943C199.781 71.6943 196.302 75.1734 196.302 79.4651ZM209.396 79.4651C209.396 82.4048 207.013 84.7879 204.073 84.7879C201.133 84.7879 198.75 82.4048 198.75 79.4651C198.75 76.5254 201.133 74.1423 204.073 74.1423C207.013 74.1423 209.396 76.5254 209.396 79.4651Z" fill="#40CAFD"/>
<rect width="29.0736" height="4.15336" transform="matrix(-1 0 0 1 245.986 125.286)" fill="white"/>
<rect width="24.1164" height="4.15336" transform="matrix(-1 0 0 1 243.461 131.182)" fill="white"/>
<path d="M241.182 137.077H221.621V140.427L222.09 140.695C228.029 144.084 235.34 143.982 241.182 140.427V140.427V137.077Z" fill="white"/>
<path d="M226.044 108.472C231.583 117.315 232.561 133.154 229.502 125.768C226.76 130.981 225.706 117.985 222.536 111.755C218.855 104.52 218.587 89.9834 222.536 88.1746C224.972 90.5193 224.131 105.419 226.044 108.472Z" fill="white"/>
<path d="M205.574 72.2792C208.289 67.8381 212.101 64.17 216.643 61.6274C221.185 59.0848 226.305 57.7533 231.51 57.7608C236.715 57.7683 241.831 59.1145 246.365 61.6702C250.9 64.2258 254.701 67.905 257.403 72.3539L253.087 74.9755C250.834 71.267 247.666 68.2002 243.886 66.0698C240.106 63.9395 235.841 62.8172 231.502 62.811C227.164 62.8047 222.896 63.9147 219.11 66.0341C215.324 68.1536 212.146 71.2113 209.883 74.9133L205.574 72.2792Z" fill="#40CAFD"/>
<path d="M220.888 60.4519C224.747 60.4414 228.544 61.4236 231.913 63.3042C235.283 65.1848 238.112 67.9005 240.129 71.1903C242.146 74.4801 243.283 78.2334 243.43 82.0894C243.578 85.9455 242.731 89.7747 240.971 93.2089L237.639 91.5014C239.106 88.6387 239.812 85.4468 239.689 82.2325C239.566 79.0182 238.618 75.8895 236.937 73.1471C235.256 70.4048 232.897 68.1411 230.089 66.5735C227.28 65.0059 224.115 64.1871 220.898 64.1959L220.888 60.4519Z" fill="#40CAFD"/>
</svg>
