<svg width="83" height="19" viewBox="0 0 83 19" fill="none" xmlns="http://www.w3.org/2000/svg">
<path d="M11.6192 8.64205L8.29533 8.84659C8.23851 8.5625 8.11635 8.30682 7.92885 8.07955C7.74135 7.84659 7.49419 7.66193 7.18737 7.52557C6.88624 7.38352 6.52544 7.3125 6.10499 7.3125C5.54249 7.3125 5.06806 7.43182 4.68169 7.67045C4.29533 7.90341 4.10215 8.21591 4.10215 8.60795C4.10215 8.92045 4.22715 9.18466 4.47715 9.40057C4.72715 9.61648 5.15612 9.78977 5.76408 9.92045L8.1334 10.3977C9.40612 10.6591 10.355 11.0795 10.98 11.6591C11.605 12.2386 11.9175 13 11.9175 13.9432C11.9175 14.8011 11.6646 15.554 11.159 16.2017C10.659 16.8494 9.97146 17.3551 9.09646 17.7188C8.22715 18.0767 7.22431 18.2557 6.08794 18.2557C4.35499 18.2557 2.9743 17.8949 1.9459 17.1733C0.923169 16.446 0.323737 15.4574 0.1476 14.2074L3.71862 14.0199C3.82658 14.5483 4.08794 14.9517 4.50271 15.2301C4.91749 15.5028 5.44874 15.6392 6.09646 15.6392C6.73283 15.6392 7.24419 15.517 7.63056 15.2727C8.0226 15.0227 8.22146 14.7017 8.22715 14.3097C8.22146 13.9801 8.08226 13.7102 7.80953 13.5C7.53681 13.2841 7.11635 13.1193 6.54817 13.0057L4.28112 12.554C3.00271 12.2983 2.05101 11.8551 1.42601 11.2244C0.806691 10.5937 0.497032 9.78977 0.497032 8.8125C0.497032 7.97159 0.724305 7.24716 1.17885 6.6392C1.63908 6.03125 2.28396 5.5625 3.11351 5.23295C3.94874 4.90341 4.92601 4.73864 6.04533 4.73864C7.69874 4.73864 8.99987 5.08807 9.94874 5.78693C10.9033 6.4858 11.4601 7.4375 11.6192 8.64205ZM19.4868 4.90909V7.63636H11.6033V4.90909H19.4868ZM13.393 1.77273H17.0237V13.9773C17.0237 14.3125 17.0748 14.5739 17.1771 14.7614C17.2794 14.9432 17.4214 15.071 17.6033 15.1449C17.7908 15.2187 18.0067 15.2557 18.251 15.2557C18.4214 15.2557 18.5919 15.2415 18.7623 15.2131C18.9328 15.179 19.0635 15.1534 19.1544 15.1364L19.7254 17.8381C19.5436 17.8949 19.2879 17.9602 18.9584 18.0341C18.6288 18.1136 18.2283 18.1619 17.7567 18.179C16.8817 18.2131 16.1146 18.0966 15.4555 17.8295C14.8021 17.5625 14.2936 17.1477 13.93 16.5852C13.5663 16.0227 13.3873 15.3125 13.393 14.4545V1.77273ZM28.5667 12.4261V4.90909H32.1974V18H28.7116V15.6222H28.5752C28.2798 16.3892 27.7883 17.0057 27.1008 17.4716C26.419 17.9375 25.5866 18.1705 24.6037 18.1705C23.7287 18.1705 22.9588 17.9716 22.294 17.5739C21.6292 17.1761 21.1093 16.6108 20.7343 15.8778C20.365 15.1449 20.1775 14.267 20.1718 13.2443V4.90909H23.8025V12.5966C23.8082 13.3693 24.0156 13.9801 24.4247 14.429C24.8338 14.8778 25.3821 15.1023 26.0696 15.1023C26.5071 15.1023 26.9162 15.0028 27.2968 14.804C27.6775 14.5994 27.9843 14.2983 28.2173 13.9006C28.4559 13.5028 28.5724 13.0114 28.5667 12.4261ZM38.2454 18.2131C37.2511 18.2131 36.3505 17.9574 35.5437 17.446C34.7425 16.929 34.1062 16.1705 33.6346 15.1705C33.1687 14.1648 32.9357 12.9318 32.9357 11.4716C32.9357 9.97159 33.1772 8.72443 33.6602 7.73011C34.1431 6.73011 34.7852 5.98295 35.5863 5.48864C36.3931 4.98864 37.2766 4.73864 38.2369 4.73864C38.9698 4.73864 39.5806 4.86364 40.0692 5.11364C40.5636 5.35795 40.9613 5.66477 41.2624 6.03409C41.5692 6.39773 41.8022 6.75568 41.9613 7.10795H42.0721V0.545454H45.6942V18H42.1147V15.9034H41.9613C41.7908 16.267 41.5494 16.6278 41.2369 16.9858C40.93 17.3381 40.5295 17.6307 40.0352 17.8636C39.5465 18.0966 38.9499 18.2131 38.2454 18.2131ZM39.396 15.3239C39.9812 15.3239 40.4755 15.1648 40.8789 14.8466C41.288 14.5227 41.6005 14.071 41.8164 13.4915C42.038 12.9119 42.1488 12.233 42.1488 11.4545C42.1488 10.6761 42.0408 10 41.8249 9.42614C41.609 8.85227 41.2965 8.40909 40.8874 8.09659C40.4783 7.78409 39.9812 7.62784 39.396 7.62784C38.7994 7.62784 38.2965 7.78977 37.8874 8.11364C37.4783 8.4375 37.1687 8.88636 36.9585 9.46023C36.7482 10.0341 36.6431 10.6989 36.6431 11.4545C36.6431 12.2159 36.7482 12.8892 36.9585 13.4744C37.1744 14.054 37.484 14.5085 37.8874 14.8381C38.2965 15.1619 38.7994 15.3239 39.396 15.3239ZM52.9652 18.2557C51.6187 18.2557 50.4596 17.983 49.488 17.4375C48.5221 16.8864 47.7777 16.108 47.255 15.1023C46.7323 14.0909 46.4709 12.8949 46.4709 11.5142C46.4709 10.1676 46.7323 8.9858 47.255 7.96875C47.7777 6.9517 48.5135 6.15909 49.4624 5.59091C50.4169 5.02273 51.5363 4.73864 52.8204 4.73864C53.684 4.73864 54.488 4.87784 55.2323 5.15625C55.9823 5.42898 56.6357 5.84091 57.1925 6.39205C57.755 6.94318 58.1925 7.63636 58.505 8.47159C58.8175 9.30114 58.9738 10.2727 58.9738 11.3864V12.3835H47.9198V10.1335H55.5562C55.5562 9.6108 55.4425 9.14773 55.2152 8.74432C54.988 8.34091 54.6726 8.02557 54.2692 7.7983C53.8715 7.56534 53.4084 7.44886 52.88 7.44886C52.3289 7.44886 51.8402 7.5767 51.4141 7.83239C50.9937 8.08239 50.6641 8.42045 50.4255 8.84659C50.1868 9.26705 50.0647 9.7358 50.059 10.2528V12.392C50.059 13.0398 50.1783 13.5994 50.4169 14.071C50.6613 14.5426 51.005 14.9062 51.4482 15.1619C51.8914 15.4176 52.4169 15.5455 53.0249 15.5455C53.4283 15.5455 53.7976 15.4886 54.1329 15.375C54.4681 15.2614 54.755 15.0909 54.9937 14.8636C55.2323 14.6364 55.4141 14.358 55.5391 14.0284L58.8971 14.25C58.7266 15.0568 58.3772 15.7614 57.8488 16.3636C57.326 16.9602 56.6499 17.4261 55.8204 17.7614C54.9965 18.0909 54.0448 18.2557 52.9652 18.2557ZM71.5161 4.90909L66.9394 18H62.8485L58.2717 4.90909H62.107L64.8257 14.2756H64.9621L67.6723 4.90909H71.5161ZM82.5861 8.64205L79.2622 8.84659C79.2054 8.5625 79.0832 8.30682 78.8957 8.07955C78.7082 7.84659 78.4611 7.66193 78.1542 7.52557C77.8531 7.38352 77.4923 7.3125 77.0719 7.3125C76.5094 7.3125 76.0349 7.43182 75.6486 7.67045C75.2622 7.90341 75.069 8.21591 75.069 8.60795C75.069 8.92045 75.194 9.18466 75.444 9.40057C75.694 9.61648 76.123 9.78977 76.731 9.92045L79.1003 10.3977C80.373 10.6591 81.3219 11.0795 81.9469 11.6591C82.5719 12.2386 82.8844 13 82.8844 13.9432C82.8844 14.8011 82.6315 15.554 82.1258 16.2017C81.6258 16.8494 80.9383 17.3551 80.0633 17.7188C79.194 18.0767 78.1912 18.2557 77.0548 18.2557C75.3219 18.2557 73.9412 17.8949 72.9128 17.1733C71.89 16.446 71.2906 15.4574 71.1145 14.2074L74.6855 14.0199C74.7935 14.5483 75.0548 14.9517 75.4696 15.2301C75.8844 15.5028 76.4156 15.6392 77.0633 15.6392C77.6997 15.6392 78.2111 15.517 78.5974 15.2727C78.9895 15.0227 79.1883 14.7017 79.194 14.3097C79.1883 13.9801 79.0491 13.7102 78.7764 13.5C78.5037 13.2841 78.0832 13.1193 77.515 13.0057L75.248 12.554C73.9696 12.2983 73.0179 11.8551 72.3929 11.2244C71.7736 10.5937 71.4639 9.78977 71.4639 8.8125C71.4639 7.97159 71.6912 7.24716 72.1457 6.6392C72.606 6.03125 73.2508 5.5625 74.0804 5.23295C74.9156 4.90341 75.8929 4.73864 77.0122 4.73864C78.6656 4.73864 79.9667 5.08807 80.9156 5.78693C81.8702 6.4858 82.427 7.4375 82.5861 8.64205Z" fill="#F1F1F1"/>
</svg>
