<svg width="86" height="122" viewBox="0 0 86 122" fill="none" xmlns="http://www.w3.org/2000/svg">
<path d="M58.8456 56.911C50.163 63.3804 52.0657 78.5543 54.3474 72.0352C58.5848 75.7511 54.0517 65.5136 61.4532 59.2579C70.5799 51.5441 75.078 31.9431 70.5799 32.5298C66.9292 34.8766 68.3822 49.8052 58.8456 56.911Z" fill="white"/>
<path d="M25.1429 55.9334C32.9915 61.9836 33.6607 78.7661 30.684 71.5791C26.8328 77.1238 29.3151 65.5165 23.448 59.5189C14.3006 54.1733 10.9261 33.4622 15.4946 32.9864C20.0329 34.4301 16.5171 49.2841 25.1429 55.9334Z" fill="white"/>
<path d="M60.0183 26.7279C60.0183 30.9043 63.404 34.2899 67.5805 34.2899C71.7569 34.2899 75.1426 30.9043 75.1426 26.7279C75.1426 22.5514 71.7569 19.1658 67.5805 19.1658C63.404 19.1658 60.0183 22.5514 60.0183 26.7279ZM72.7603 26.7279C72.7603 29.5886 70.4412 31.9077 67.5805 31.9077C64.7197 31.9077 62.4006 29.5886 62.4006 26.7279C62.4006 23.8671 64.7197 21.548 67.5805 21.548C70.4412 21.548 72.7603 23.8671 72.7603 26.7279Z" fill="#40CAFD"/>
<path d="M39.6766 45.3721C39.6766 49.5486 43.0622 52.9342 47.2387 52.9342C51.4151 52.9342 54.8008 49.5486 54.8008 45.3721C54.8008 41.1957 51.4151 37.8101 47.2387 37.8101C43.0622 37.8101 39.6766 41.1957 39.6766 45.3721ZM52.4185 45.3721C52.4185 48.2329 50.0994 50.552 47.2387 50.552C44.3779 50.552 42.0588 48.2329 42.0588 45.3721C42.0588 42.5114 44.3779 40.1923 47.2387 40.1923C50.0994 40.1923 52.4185 42.5114 52.4185 45.3721Z" fill="#40CAFD"/>
<path d="M28.8582 29.7269C28.8582 33.9033 32.2439 37.289 36.4203 37.289C40.5967 37.289 43.9824 33.9033 43.9824 29.7269C43.9824 25.5505 40.5967 22.1648 36.4203 22.1648C32.2439 22.1648 28.8582 25.5505 28.8582 29.7269ZM41.6002 29.7269C41.6002 32.5876 39.2811 34.9067 36.4203 34.9067C33.5595 34.9067 31.2404 32.5876 31.2404 29.7269C31.2404 26.8661 33.5595 24.547 36.4203 24.547C39.2811 24.547 41.6002 26.8661 41.6002 29.7269Z" fill="white"/>
<path d="M8.12968 26.7279C8.12968 30.9043 11.5154 34.2899 15.6918 34.2899C19.8682 34.2899 23.2539 30.9043 23.2539 26.7279C23.2539 22.5514 19.8682 19.1658 15.6918 19.1658C11.5154 19.1658 8.12968 22.5514 8.12968 26.7279ZM20.8717 26.7279C20.8717 29.5886 18.5526 31.9077 15.6918 31.9077C12.831 31.9077 10.5119 29.5886 10.5119 26.7279C10.5119 23.8671 12.831 21.548 15.6918 21.548C18.5526 21.548 20.8717 23.8671 20.8717 26.7279Z" fill="#40CAFD"/>
<rect width="28.2927" height="4.0418" transform="matrix(-1 0 0 1 56.4805 71.3181)" fill="white"/>
<rect width="23.4686" height="4.0418" transform="matrix(-1 0 0 1 54.0215 77.0549)" fill="white"/>
<path d="M51.8047 82.792H32.769V86.0515L33.2259 86.3123C39.0053 89.6108 46.1201 89.5109 51.8047 86.0515V82.792Z" fill="white"/>
<path d="M37.0732 54.9555C42.4634 63.5607 43.415 78.9738 40.4382 71.7869C37.7696 76.8596 36.7444 64.2126 33.6595 58.1499C30.0771 51.1094 29.8164 36.9631 33.6595 35.2029C36.0302 37.4846 35.2118 51.9838 37.0732 54.9555Z" fill="white"/>
<path d="M17.1551 19.735C19.7971 15.4131 23.5064 11.8435 27.9264 9.36924C32.3464 6.89495 37.3285 5.59918 42.394 5.60648C47.4594 5.61377 52.4378 6.92389 56.8507 9.4109C61.2636 11.8979 64.9625 15.4782 67.5921 19.8076L63.3915 22.3589C61.1996 18.7499 58.1162 15.7655 54.4377 13.6923C50.7593 11.6192 46.6093 10.5271 42.3869 10.5211C38.1645 10.515 34.0114 11.5951 30.327 13.6576C26.6426 15.7201 23.5506 18.6957 21.3483 22.2983L17.1551 19.735Z" fill="#40CAFD"/>
<path d="M32.0568 8.22476C35.8121 8.21449 39.5068 9.17033 42.7859 11.0004C46.0651 12.8305 48.8183 15.4732 50.7811 18.6747C52.7439 21.8761 53.8502 25.5286 53.9936 29.2811C54.1371 33.0336 53.3129 36.7599 51.6003 40.1019L48.3579 38.4403C49.7855 35.6545 50.4725 32.5483 50.3529 29.4203C50.2333 26.2923 49.3111 23.2477 47.675 20.579C46.0388 17.9103 43.7438 15.7074 41.0104 14.1819C38.2769 12.6564 35.1971 11.8596 32.0668 11.8681L32.0568 8.22476Z" fill="#40CAFD"/>
<path d="M13.1192 106.3L9.79533 106.504C9.73851 106.22 9.61635 105.965 9.42885 105.737C9.24135 105.504 8.99419 105.32 8.68737 105.183C8.38624 105.041 8.02544 104.97 7.60499 104.97C7.04249 104.97 6.56806 105.09 6.18169 105.328C5.79533 105.561 5.60215 105.874 5.60215 106.266C5.60215 106.578 5.72715 106.842 5.97715 107.058C6.22715 107.274 6.65612 107.447 7.26408 107.578L9.6334 108.055C10.9061 108.317 11.855 108.737 12.48 109.317C13.105 109.896 13.4175 110.658 13.4175 111.601C13.4175 112.459 13.1646 113.212 12.659 113.859C12.159 114.507 11.4715 115.013 10.5965 115.376C9.72715 115.734 8.72431 115.913 7.58794 115.913C5.85499 115.913 4.4743 115.553 3.4459 114.831C2.42317 114.104 1.82374 113.115 1.6476 111.865L5.21862 111.678C5.32658 112.206 5.58794 112.609 6.00271 112.888C6.41749 113.161 6.94874 113.297 7.59646 113.297C8.23283 113.297 8.74419 113.175 9.13056 112.93C9.5226 112.68 9.72146 112.359 9.72715 111.967C9.72146 111.638 9.58226 111.368 9.30953 111.158C9.03681 110.942 8.61635 110.777 8.04817 110.663L5.78112 110.212C4.50271 109.956 3.55101 109.513 2.92601 108.882C2.30669 108.251 1.99703 107.447 1.99703 106.47C1.99703 105.629 2.2243 104.905 2.67885 104.297C3.13908 103.689 3.78396 103.22 4.61351 102.891C5.44874 102.561 6.42601 102.396 7.54533 102.396C9.19874 102.396 10.4999 102.746 11.4487 103.445C12.4033 104.144 12.9601 105.095 13.1192 106.3ZM20.9868 102.567V105.294H13.1033V102.567H20.9868ZM14.893 99.4304H18.5237V111.635C18.5237 111.97 18.5748 112.232 18.6771 112.419C18.7794 112.601 18.9214 112.729 19.1033 112.803C19.2908 112.876 19.5067 112.913 19.751 112.913C19.9214 112.913 20.0919 112.899 20.2623 112.871C20.4328 112.837 20.5635 112.811 20.6544 112.794L21.2254 115.496C21.0436 115.553 20.7879 115.618 20.4584 115.692C20.1288 115.771 19.7283 115.82 19.2567 115.837C18.3817 115.871 17.6146 115.754 16.9555 115.487C16.3021 115.22 15.7936 114.805 15.43 114.243C15.0663 113.68 14.8873 112.97 14.893 112.112V99.4304ZM30.0667 110.084V102.567H33.6974V115.658H30.2116V113.28H30.0752C29.7798 114.047 29.2883 114.663 28.6008 115.129C27.919 115.595 27.0866 115.828 26.1037 115.828C25.2287 115.828 24.4588 115.629 23.794 115.232C23.1292 114.834 22.6093 114.269 22.2343 113.536C21.865 112.803 21.6775 111.925 21.6718 110.902V102.567H25.3025V110.254C25.3082 111.027 25.5156 111.638 25.9247 112.087C26.3338 112.536 26.8821 112.76 27.5696 112.76C28.0071 112.76 28.4162 112.661 28.7968 112.462C29.1775 112.257 29.4843 111.956 29.7173 111.558C29.9559 111.161 30.0724 110.669 30.0667 110.084ZM39.7454 115.871C38.7511 115.871 37.8505 115.615 37.0437 115.104C36.2425 114.587 35.6062 113.828 35.1346 112.828C34.6687 111.822 34.4357 110.59 34.4357 109.129C34.4357 107.629 34.6772 106.382 35.1602 105.388C35.6431 104.388 36.2852 103.641 37.0863 103.146C37.8931 102.646 38.7766 102.396 39.7369 102.396C40.4698 102.396 41.0806 102.521 41.5692 102.771C42.0636 103.016 42.4613 103.322 42.7624 103.692C43.0692 104.055 43.3022 104.413 43.4613 104.766H43.5721V98.2032H47.1942V115.658H43.6147V113.561H43.4613C43.2908 113.925 43.0494 114.286 42.7369 114.644C42.43 114.996 42.0295 115.288 41.5352 115.521C41.0465 115.754 40.4499 115.871 39.7454 115.871ZM40.896 112.982C41.4812 112.982 41.9755 112.822 42.3789 112.504C42.788 112.18 43.1005 111.729 43.3164 111.149C43.538 110.57 43.6488 109.891 43.6488 109.112C43.6488 108.334 43.5408 107.658 43.3249 107.084C43.109 106.51 42.7965 106.067 42.3874 105.754C41.9783 105.442 41.4812 105.286 40.896 105.286C40.2994 105.286 39.7965 105.447 39.3874 105.771C38.9783 106.095 38.6687 106.544 38.4585 107.118C38.2482 107.692 38.1431 108.357 38.1431 109.112C38.1431 109.874 38.2482 110.547 38.4585 111.132C38.6744 111.712 38.984 112.166 39.3874 112.496C39.7965 112.82 40.2994 112.982 40.896 112.982ZM54.4652 115.913C53.1187 115.913 51.9596 115.641 50.988 115.095C50.0221 114.544 49.2777 113.766 48.755 112.76C48.2323 111.749 47.9709 110.553 47.9709 109.172C47.9709 107.825 48.2323 106.644 48.755 105.626C49.2777 104.609 50.0135 103.817 50.9624 103.249C51.9169 102.68 53.0363 102.396 54.3204 102.396C55.184 102.396 55.988 102.536 56.7323 102.814C57.4823 103.087 58.1357 103.499 58.6925 104.05C59.255 104.601 59.6925 105.294 60.005 106.129C60.3175 106.959 60.4738 107.93 60.4738 109.044V110.041H49.4198V107.791H57.0562C57.0562 107.269 56.9425 106.805 56.7152 106.402C56.488 105.999 56.1726 105.683 55.7692 105.456C55.3715 105.223 54.9084 105.107 54.38 105.107C53.8289 105.107 53.3402 105.234 52.9141 105.49C52.4937 105.74 52.1641 106.078 51.9255 106.504C51.6868 106.925 51.5647 107.394 51.559 107.911V110.05C51.559 110.697 51.6783 111.257 51.9169 111.729C52.1613 112.2 52.505 112.564 52.9482 112.82C53.3914 113.075 53.9169 113.203 54.5249 113.203C54.9283 113.203 55.2976 113.146 55.6329 113.033C55.9681 112.919 56.255 112.749 56.4937 112.521C56.7323 112.294 56.9141 112.016 57.0391 111.686L60.3971 111.908C60.2266 112.715 59.8772 113.419 59.3488 114.021C58.826 114.618 58.1499 115.084 57.3204 115.419C56.4965 115.749 55.5448 115.913 54.4652 115.913ZM73.0161 102.567L68.4394 115.658H64.3485L59.7717 102.567H63.607L66.3257 111.933H66.4621L69.1723 102.567H73.0161ZM84.0861 106.3L80.7622 106.504C80.7054 106.22 80.5832 105.965 80.3957 105.737C80.2082 105.504 79.9611 105.32 79.6542 105.183C79.3531 105.041 78.9923 104.97 78.5719 104.97C78.0094 104.97 77.5349 105.09 77.1486 105.328C76.7622 105.561 76.569 105.874 76.569 106.266C76.569 106.578 76.694 106.842 76.944 107.058C77.194 107.274 77.623 107.447 78.231 107.578L80.6003 108.055C81.873 108.317 82.8219 108.737 83.4469 109.317C84.0719 109.896 84.3844 110.658 84.3844 111.601C84.3844 112.459 84.1315 113.212 83.6258 113.859C83.1258 114.507 82.4383 115.013 81.5633 115.376C80.694 115.734 79.6912 115.913 78.5548 115.913C76.8219 115.913 75.4412 115.553 74.4128 114.831C73.39 114.104 72.7906 113.115 72.6145 111.865L76.1855 111.678C76.2935 112.206 76.5548 112.609 76.9696 112.888C77.3844 113.161 77.9156 113.297 78.5633 113.297C79.1997 113.297 79.7111 113.175 80.0974 112.93C80.4895 112.68 80.6883 112.359 80.694 111.967C80.6883 111.638 80.5491 111.368 80.2764 111.158C80.0037 110.942 79.5832 110.777 79.015 110.663L76.748 110.212C75.4696 109.956 74.5179 109.513 73.8929 108.882C73.2736 108.251 72.9639 107.447 72.9639 106.47C72.9639 105.629 73.1912 104.905 73.6457 104.297C74.106 103.689 74.7508 103.22 75.5804 102.891C76.4156 102.561 77.3929 102.396 78.5122 102.396C80.1656 102.396 81.4667 102.746 82.4156 103.445C83.3702 104.144 83.927 105.095 84.0861 106.3Z" fill="#F1F1F1"/>
</svg>
