<svg width="36" height="27" viewBox="0 0 36 27" fill="none" xmlns="http://www.w3.org/2000/svg">
<path d="M29.8147 2.31904C27.6534 1.31154 25.3134 0.58029 22.8759 0.15779C22.8546 0.157106 22.8333 0.161117 22.8136 0.16954C22.794 0.177962 22.7764 0.190593 22.7622 0.20654C22.4697 0.74279 22.1284 1.44154 21.9009 1.97779C19.3155 1.58779 16.6863 1.58779 14.1009 1.97779C13.8734 1.42529 13.5322 0.74279 13.2234 0.20654C13.2072 0.17404 13.1584 0.15779 13.1097 0.15779C10.6722 0.58029 8.34842 1.31154 6.17092 2.31904C6.15467 2.31904 6.13842 2.33529 6.12217 2.35154C1.70217 8.96529 0.483423 15.4003 1.08467 21.7703C1.08467 21.8028 1.10092 21.8353 1.13342 21.8515C4.05842 23.9965 6.86967 25.2965 9.64842 26.1578C9.69717 26.174 9.74592 26.1578 9.76217 26.1253C10.4122 25.2315 10.9972 24.289 11.5009 23.2978C11.5334 23.2328 11.5009 23.1678 11.4359 23.1515C10.5097 22.794 9.63217 22.3715 8.77092 21.884C8.70592 21.8515 8.70592 21.754 8.75467 21.7053C8.93342 21.5753 9.11217 21.429 9.29092 21.299C9.32342 21.2665 9.37217 21.2665 9.40467 21.2828C14.9947 23.834 21.0234 23.834 26.5484 21.2828C26.5809 21.2665 26.6297 21.2665 26.6622 21.299C26.8409 21.4453 27.0197 21.5753 27.1984 21.7215C27.2634 21.7703 27.2634 21.8678 27.1822 21.9003C26.3372 22.404 25.4434 22.8103 24.5172 23.1678C24.4522 23.184 24.4359 23.2653 24.4522 23.314C24.9722 24.3053 25.5572 25.2478 26.1909 26.1415C26.2397 26.1578 26.2884 26.174 26.3372 26.1578C29.1322 25.2965 31.9434 23.9965 34.8684 21.8515C34.9009 21.8353 34.9172 21.8028 34.9172 21.7703C35.6322 14.409 33.7309 8.02279 29.8797 2.35154C29.8634 2.33529 29.8472 2.31904 29.8147 2.31904ZM12.3459 17.8865C10.6722 17.8865 9.27467 16.3428 9.27467 14.4415C9.27467 12.5403 10.6397 10.9965 12.3459 10.9965C14.0684 10.9965 15.4334 12.5565 15.4172 14.4415C15.4172 16.3428 14.0522 17.8865 12.3459 17.8865ZM23.6722 17.8865C21.9984 17.8865 20.6009 16.3428 20.6009 14.4415C20.6009 12.5403 21.9659 10.9965 23.6722 10.9965C25.3947 10.9965 26.7597 12.5565 26.7434 14.4415C26.7434 16.3428 25.3947 17.8865 23.6722 17.8865Z" fill="#D8D8D8"/>
</svg>
