<svg width="31" height="30" viewBox="0 0 31 30" fill="none" xmlns="http://www.w3.org/2000/svg">
<path d="M27.1667 0.532715C28.0507 0.532715 28.8986 0.875124 29.5237 1.48462C30.1488 2.09411 30.5 2.92076 30.5 3.78271V26.5327C30.5 27.3947 30.1488 28.2213 29.5237 28.8308C28.8986 29.4403 28.0507 29.7827 27.1667 29.7827H3.83333C2.94928 29.7827 2.10143 29.4403 1.47631 28.8308C0.851189 28.2213 0.5 27.3947 0.5 26.5327V3.78271C0.5 2.92076 0.851189 2.09411 1.47631 1.48462C2.10143 0.875124 2.94928 0.532715 3.83333 0.532715H27.1667ZM26.3333 25.7202V17.1077C26.3333 15.7027 25.7609 14.3553 24.7419 13.3618C23.723 12.3683 22.341 11.8102 20.9 11.8102C19.4833 11.8102 17.8333 12.6552 17.0333 13.9227V12.119H12.3833V25.7202H17.0333V17.709C17.0333 16.4577 18.0667 15.434 19.35 15.434C19.9688 15.434 20.5623 15.6737 20.9999 16.1003C21.4375 16.5269 21.6833 17.1056 21.6833 17.709V25.7202H26.3333ZM6.96667 9.56772C7.70927 9.56772 8.42146 9.28009 8.94657 8.76812C9.47167 8.25614 9.76667 7.56176 9.76667 6.83772C9.76667 5.32647 8.51667 4.09146 6.96667 4.09146C6.21964 4.09146 5.50321 4.3808 4.97498 4.89582C4.44675 5.41084 4.15 6.10936 4.15 6.83772C4.15 8.34897 5.41667 9.56772 6.96667 9.56772ZM9.28333 25.7202V12.119H4.66667V25.7202H9.28333Z" fill="#D8D8D8"/>
</svg>
