<svg width="309" height="108" viewBox="0 0 309 108" fill="none" xmlns="http://www.w3.org/2000/svg">
<path d="M51.248 14.5684L19.3877 107H0.125L40.2617 0.359375H52.5664L51.248 14.5684ZM77.9082 107L45.9746 14.5684L44.583 0.359375H56.9609L97.2441 107H77.9082ZM76.3701 67.4492V82.0244H18.3623V67.4492H76.3701ZM193.777 0.359375V107H175.394L127.566 30.6084V107H109.183V0.359375H127.566L175.54 76.8975V0.359375H193.777ZM223.807 0.359375L248.562 51.2627L273.318 0.359375H293.68L257.791 67.7422V107H239.261V67.7422L203.372 0.359375H223.807ZM288.187 98.2109C288.187 95.4766 289.114 93.1816 290.97 91.3262C292.825 89.4219 295.34 88.4697 298.514 88.4697C301.736 88.4697 304.251 89.4219 306.058 91.3262C307.913 93.1816 308.841 95.4766 308.841 98.2109C308.841 100.945 307.913 103.24 306.058 105.096C304.251 106.951 301.736 107.879 298.514 107.879C295.34 107.879 292.825 106.951 290.97 105.096C289.114 103.24 288.187 100.945 288.187 98.2109Z" fill="url(#paint0_linear_428_1756)"/>
<defs>
<linearGradient id="paint0_linear_428_1756" x1="31" y1="55" x2="262" y2="107" gradientUnits="userSpaceOnUse">
<stop stop-color="#2D81BE"/>
<stop offset="1" stop-color="#33E1BE"/>
</linearGradient>
</defs>
</svg>
