<svg width="558" height="99" viewBox="0 0 558 99" fill="none" xmlns="http://www.w3.org/2000/svg">
<path d="M69.4766 48.0742C69.4766 52.6641 69.1104 57.0586 68.3779 61.2578C67.6943 65.457 66.5713 69.3633 65.0088 72.9766C63.4463 76.5898 61.4199 79.8857 58.9297 82.8643C56.4395 85.7939 53.3877 88.3086 49.7744 90.4082C46.1611 92.5078 41.9619 94.1436 37.1768 95.3154C32.3916 96.4385 26.9473 97 20.8438 97H0.335938V1.27246H25.0186C39.96 1.27246 51.0928 5.12988 58.417 12.8447C65.79 20.5107 69.4766 32.2539 69.4766 48.0742ZM55.7803 49.0264C55.7803 42.2393 55.1455 36.502 53.876 31.8145C52.6064 27.127 50.6777 23.3428 48.0898 20.4619C45.502 17.5811 42.2549 15.5059 38.3486 14.2363C34.4424 12.918 29.8525 12.2588 24.5791 12.2588H13.373V85.7207H23.1143C44.8916 85.7207 55.7803 73.4893 55.7803 49.0264ZM143.964 97H89.5449V1.27246H143.964V12.2588H102.582V41.9219H142.353V52.9082H102.582V85.8672H143.964V97ZM238.007 97H221.527L198.236 58.3281L174.872 97H158.612L190.473 48.0742L161.176 1.27246H176.63L198.529 37.3076L220.575 1.27246H235.59L206.22 47.4883L238.007 97ZM302.899 63.0889H259.101V51.0771H302.899V63.0889ZM395.111 93.4111C387.445 96.585 379.413 98.1719 371.015 98.1719C357.489 98.1719 347.089 94.1436 339.813 86.0869C332.587 77.9814 328.974 66.0186 328.974 50.1982C328.974 42.5322 329.975 35.5986 331.977 29.3975C333.979 23.1963 336.835 17.9473 340.546 13.6504C344.257 9.30469 348.749 5.95996 354.022 3.61621C359.296 1.27246 365.204 0.100586 371.747 0.100586C376.19 0.100586 380.316 0.491211 384.125 1.27246C387.934 2.00488 391.596 3.15234 395.111 4.71484V17.5322C391.645 15.6279 388.056 14.1875 384.345 13.2109C380.634 12.1855 376.581 11.6729 372.187 11.6729C367.694 11.6729 363.617 12.5273 359.955 14.2363C356.342 15.8965 353.266 18.3379 350.727 21.5605C348.188 24.7344 346.234 28.6406 344.867 33.2793C343.5 37.8691 342.816 43.1182 342.816 49.0264C342.816 61.4287 345.331 70.7793 350.36 77.0781C355.39 83.377 362.763 86.5264 372.479 86.5264C376.581 86.5264 380.512 86.0625 384.271 85.1348C388.031 84.1582 391.645 82.8154 395.111 81.1064V93.4111ZM476.85 97H421.771V1.27246H435.028V85.8672H476.85V97ZM521.82 12.2588H499.774V1.27246H557.05V12.2588H535.004V85.8672H557.05V97H499.774V85.8672H521.82V12.2588Z" fill="black"/>
</svg>
