<svg width="133" height="150" viewBox="0 0 133 150" fill="none" xmlns="http://www.w3.org/2000/svg">
<path fill-rule="evenodd" clip-rule="evenodd" d="M107 40.5C107 62.8675 88.8675 81 66.5 81C44.1325 81 26 62.8675 26 40.5C26 18.1325 44.1325 0 66.5 0C88.8675 0 107 18.1325 107 40.5ZM51.735 23.5147C51.735 22.8464 52.2768 22.3047 52.945 22.3047C53.6133 22.3047 54.1551 22.8464 54.1551 23.5147V34.9552C54.1551 35.1987 54.0832 35.4254 53.9594 35.6152H54.1551L55.9702 35.8352H56.6853V23.5147C56.6853 22.8464 57.227 22.3047 57.8953 22.3047C58.5636 22.3047 59.1054 22.8464 59.1054 23.5147V35.8352H59.8754L61.6354 35.6152H61.8311C61.7074 35.4254 61.6354 35.1987 61.6354 34.9552V23.5147C61.6354 22.8464 62.1772 22.3047 62.8455 22.3047C63.5138 22.3047 64.0555 22.8464 64.0555 23.5147V34.9552C64.0555 35.1987 63.9836 35.4254 63.8598 35.6152H64.0555C64.0555 36.9758 62.9981 38.102 61.6402 38.1877L59.1054 38.3475V57.2862C59.1054 57.9545 58.5636 58.4963 57.8953 58.4963C57.227 58.4963 56.6853 57.9545 56.6853 57.2862V38.342L54.1505 38.185C52.7929 38.1009 51.735 36.9754 51.735 35.6152H51.9307C51.8069 35.4254 51.735 35.1987 51.735 34.9552V23.5147ZM73.956 25.8008L78.5762 28.8175V40.3238L73.956 42.8237V25.8008ZM71.6285 23.8195C71.5786 23.529 71.634 23.2195 71.8079 22.9531C72.1733 22.3935 72.9231 22.2361 73.4827 22.6015L80.489 27.1761C80.9387 27.4697 81.1287 28.0117 80.9963 28.5037V40.6029C81.1929 41.1554 80.9632 41.7838 80.4314 42.0716L74.181 45.4536C74.1079 45.4931 74.0325 45.5244 73.956 45.5477V58.0563C73.956 58.7246 73.4142 59.2664 72.7459 59.2664C72.0776 59.2664 71.5359 58.7246 71.5359 58.0563V24.2848C71.5359 24.1199 71.5688 23.9628 71.6285 23.8195Z" fill="url(#paint0_linear_423_1275)"/>
<path d="M33.08 112.2C33.08 112.893 33.04 113.627 32.96 114.4H15.44C15.5733 116.56 16.3067 118.253 17.64 119.48C19 120.68 20.64 121.28 22.56 121.28C24.1333 121.28 25.44 120.92 26.48 120.2C27.5467 119.453 28.2933 118.467 28.72 117.24H32.64C32.0533 119.347 30.88 121.067 29.12 122.4C27.36 123.707 25.1733 124.36 22.56 124.36C20.48 124.36 18.6133 123.893 16.96 122.96C15.3333 122.027 14.0533 120.707 13.12 119C12.1867 117.267 11.72 115.267 11.72 113C11.72 110.733 12.1733 108.747 13.08 107.04C13.9867 105.333 15.2533 104.027 16.88 103.12C18.5333 102.187 20.4267 101.72 22.56 101.72C24.64 101.72 26.48 102.173 28.08 103.08C29.68 103.987 30.9067 105.24 31.76 106.84C32.64 108.413 33.08 110.2 33.08 112.2ZM29.32 111.44C29.32 110.053 29.0133 108.867 28.4 107.88C27.7867 106.867 26.9467 106.107 25.88 105.6C24.84 105.067 23.68 104.8 22.4 104.8C20.56 104.8 18.9867 105.387 17.68 106.56C16.4 107.733 15.6667 109.36 15.48 111.44H29.32ZM36.5247 112.96C36.5247 110.72 36.978 108.76 37.8847 107.08C38.7914 105.373 40.0314 104.053 41.6047 103.12C43.2047 102.187 44.978 101.72 46.9247 101.72C48.8447 101.72 50.5114 102.133 51.9247 102.96C53.338 103.787 54.3914 104.827 55.0847 106.08V102.08H58.7647V124H55.0847V119.92C54.3647 121.2 53.2847 122.267 51.8447 123.12C50.4314 123.947 48.778 124.36 46.8847 124.36C44.938 124.36 43.178 123.88 41.6047 122.92C40.0314 121.96 38.7914 120.613 37.8847 118.88C36.978 117.147 36.5247 115.173 36.5247 112.96ZM55.0847 113C55.0847 111.347 54.7514 109.907 54.0847 108.68C53.418 107.453 52.5114 106.52 51.3647 105.88C50.2447 105.213 49.0047 104.88 47.6447 104.88C46.2847 104.88 45.0447 105.2 43.9247 105.84C42.8047 106.48 41.9114 107.413 41.2447 108.64C40.578 109.867 40.2447 111.307 40.2447 112.96C40.2447 114.64 40.578 116.107 41.2447 117.36C41.9114 118.587 42.8047 119.533 43.9247 120.2C45.0447 120.84 46.2847 121.16 47.6447 121.16C49.0047 121.16 50.2447 120.84 51.3647 120.2C52.5114 119.533 53.418 118.587 54.0847 117.36C54.7514 116.107 55.0847 114.653 55.0847 113ZM69.3559 105.08V118C69.3559 119.067 69.5826 119.827 70.0359 120.28C70.4893 120.707 71.2759 120.92 72.3959 120.92H75.0759V124H71.7959C69.7693 124 68.2493 123.533 67.2359 122.6C66.2226 121.667 65.7159 120.133 65.7159 118V105.08H62.8759V102.08H65.7159V96.56H69.3559V102.08H75.0759V105.08H69.3559ZM94.6863 107.8V110.88H78.7263V107.8H94.6863Z" fill="#141414"/>
<path d="M105.158 96.12V124H101.518V96.12H105.158ZM115.801 105.08V118C115.801 119.067 116.028 119.827 116.481 120.28C116.935 120.707 117.721 120.92 118.841 120.92H121.521V124H118.241C116.215 124 114.695 123.533 113.681 122.6C112.668 121.667 112.161 120.133 112.161 118V105.08H109.321V102.08H112.161V96.56H115.801V102.08H121.521V105.08H115.801Z" fill="#1EF099"/>
<defs>
<linearGradient id="paint0_linear_423_1275" x1="66.5" y1="0" x2="66.5" y2="81" gradientUnits="userSpaceOnUse">
<stop stop-color="#1EF18C"/>
<stop offset="1" stop-color="#1DEAD9"/>
</linearGradient>
</defs>
</svg>
