<svg width="561" height="225" viewBox="0 0 561 225" fill="none" xmlns="http://www.w3.org/2000/svg">
<rect x="339" width="222" height="225" fill="url(#paint0_linear_280_131)"/>
<path d="M60.75 80.4C70.35 80.4 78.05 83.6 83.85 90C89.65 96.3 92.55 105 92.55 116.1V165H67.05V119.55C67.05 113.95 65.6 109.6 62.7 106.5C59.8 103.4 55.9 101.85 51 101.85C46.1 101.85 42.2 103.4 39.3 106.5C36.4 109.6 34.95 113.95 34.95 119.55V165H9.3V54H34.95V92.55C37.55 88.85 41.1 85.9 45.6 83.7C50.1 81.5 55.15 80.4 60.75 80.4ZM123.274 72.6C118.774 72.6 115.074 71.3 112.174 68.7C109.374 66 107.974 62.7 107.974 58.8C107.974 54.8 109.374 51.5 112.174 48.9C115.074 46.2 118.774 44.85 123.274 44.85C127.674 44.85 131.274 46.2 134.074 48.9C136.974 51.5 138.424 54.8 138.424 58.8C138.424 62.7 136.974 66 134.074 68.7C131.274 71.3 127.674 72.6 123.274 72.6ZM136.024 81.3V165H110.374V81.3H136.024ZM149.513 123C149.513 114.4 151.113 106.85 154.313 100.35C157.613 93.85 162.063 88.85 167.663 85.35C173.263 81.85 179.513 80.1 186.413 80.1C191.913 80.1 196.913 81.25 201.413 83.55C206.013 85.85 209.613 88.95 212.213 92.85V54H237.863V165H212.213V153C209.813 157 206.363 160.2 201.863 162.6C197.463 165 192.313 166.2 186.413 166.2C179.513 166.2 173.263 164.45 167.663 160.95C162.063 157.35 157.613 152.3 154.313 145.8C151.113 139.2 149.513 131.6 149.513 123ZM212.213 123.15C212.213 116.75 210.413 111.7 206.813 108C203.313 104.3 199.013 102.45 193.913 102.45C188.813 102.45 184.463 104.3 180.863 108C177.363 111.6 175.613 116.6 175.613 123C175.613 129.4 177.363 134.5 180.863 138.3C184.463 142 188.813 143.85 193.913 143.85C199.013 143.85 203.313 142 206.813 138.3C210.413 134.6 212.213 129.55 212.213 123.15ZM335.319 121.8C335.319 124.2 335.169 126.7 334.869 129.3H276.819C277.219 134.5 278.869 138.5 281.769 141.3C284.769 144 288.419 145.35 292.719 145.35C299.119 145.35 303.569 142.65 306.069 137.25H333.369C331.969 142.75 329.419 147.7 325.719 152.1C322.119 156.5 317.569 159.95 312.069 162.45C306.569 164.95 300.419 166.2 293.619 166.2C285.419 166.2 278.119 164.45 271.719 160.95C265.319 157.45 260.319 152.45 256.719 145.95C253.119 139.45 251.319 131.85 251.319 123.15C251.319 114.45 253.069 106.85 256.569 100.35C260.169 93.85 265.169 88.85 271.569 85.35C277.969 81.85 285.319 80.1 293.619 80.1C301.719 80.1 308.919 81.8 315.219 85.2C321.519 88.6 326.419 93.45 329.919 99.75C333.519 106.05 335.319 113.4 335.319 121.8ZM309.069 115.05C309.069 110.65 307.569 107.15 304.569 104.55C301.569 101.95 297.819 100.65 293.319 100.65C289.019 100.65 285.369 101.9 282.369 104.4C279.469 106.9 277.669 110.45 276.969 115.05H309.069ZM360.851 166.2C356.351 166.2 352.651 164.9 349.751 162.3C346.951 159.6 345.551 156.3 345.551 152.4C345.551 148.4 346.951 145.05 349.751 142.35C352.651 139.65 356.351 138.3 360.851 138.3C365.251 138.3 368.851 139.65 371.651 142.35C374.551 145.05 376.001 148.4 376.001 152.4C376.001 156.3 374.551 159.6 371.651 162.3C368.851 164.9 365.251 166.2 360.851 166.2ZM404.085 72.6C399.585 72.6 395.885 71.3 392.985 68.7C390.185 66 388.785 62.7 388.785 58.8C388.785 54.8 390.185 51.5 392.985 48.9C395.885 46.2 399.585 44.85 404.085 44.85C408.485 44.85 412.085 46.2 414.885 48.9C417.785 51.5 419.235 54.8 419.235 58.8C419.235 62.7 417.785 66 414.885 68.7C412.085 71.3 408.485 72.6 404.085 72.6ZM416.835 81.3V165H391.185V81.3H416.835ZM482.073 143.25V165H469.023C459.723 165 452.473 162.75 447.273 158.25C442.073 153.65 439.473 146.2 439.473 135.9V102.6H429.273V81.3H439.473V60.9H465.123V81.3H481.923V102.6H465.123V136.2C465.123 138.7 465.723 140.5 466.923 141.6C468.123 142.7 470.123 143.25 472.923 143.25H482.073ZM508.361 166.2C503.861 166.2 500.161 164.9 497.261 162.3C494.461 159.6 493.061 156.3 493.061 152.4C493.061 148.4 494.461 145.05 497.261 142.35C500.161 139.65 503.861 138.3 508.361 138.3C512.761 138.3 516.361 139.65 519.161 142.35C522.061 145.05 523.511 148.4 523.511 152.4C523.511 156.3 522.061 159.6 519.161 162.3C516.361 164.9 512.761 166.2 508.361 166.2Z" fill="white"/>
<defs>
<linearGradient id="paint0_linear_280_131" x1="339" y1="0" x2="563.98" y2="221.98" gradientUnits="userSpaceOnUse">
<stop stop-color="#04F8B5"/>
<stop offset="1" stop-color="#691CFD"/>
</linearGradient>
</defs>
</svg>
