<svg width="401" height="376" viewBox="0 0 401 376" fill="none" xmlns="http://www.w3.org/2000/svg">
<path d="M177.733 93.1818H218.038L272.015 224.929H274.146L328.123 93.1818H368.429V275H336.823V150.089H335.137L284.888 274.467H261.273L211.024 149.822H209.338V275H177.733V93.1818Z" fill="url(#paint0_linear_280_134)"/>
<path d="M193.304 154.5C193.304 163.833 191.054 172.583 186.554 180.75C182.221 188.917 175.304 195.5 165.804 200.5C156.471 205.5 144.637 208 130.304 208H101.054V275H66.0538V100.5H130.304C143.804 100.5 155.304 102.833 164.804 107.5C174.304 112.167 181.387 118.583 186.054 126.75C190.887 134.917 193.304 144.167 193.304 154.5ZM128.804 179.75C138.471 179.75 145.637 177.583 150.304 173.25C154.971 168.75 157.304 162.5 157.304 154.5C157.304 137.5 147.804 129 128.804 129H101.054V179.75H128.804Z" fill="url(#paint1_linear_280_134)"/>
<path d="M191.724 74.0749C185.139 74.679 178.428 74.3399 171.812 73.1256C179.679 71.5609 186.889 67.457 191.896 61.3918C184.476 62.8684 176.787 63.1318 169.125 62.2728C165.571 54.6943 158.717 48.8097 149.446 45.9468C132.155 40.6072 114.319 38.8403 108.093 54.7784C98.3522 36.173 83.3734 41.4994 86.4693 46.5986C111.857 34.7664 62.2216 50.8013 53.5001 28.5894C49.1228 31.9854 40.1692 38.2011 38.1202 43.4466C34.2061 53.4668 39.94 55.4635 46.505 63.143C41.2809 61.5297 36.8713 58.8869 33.3918 55.5515C27.9278 69.5394 34.2466 84.6037 47.6436 91.6798C42.5611 91.4081 37.6373 90.0682 33.259 87.7653C33.018 94.1154 34.9724 100.34 38.8474 105.565C42.7224 110.79 76.5038 164.11 83.043 166.252C68.7322 170.879 67.7058 33.0464 53.5001 28.5894C50.9985 27.8169 66.7852 93 66.728 97.4982C66.3141 130.047 54.4192 125.692 72.2253 131.191C90.5106 91.2362 153.828 126.128 168.723 87.9978C169.222 86.7201 169.695 85.5096 170.121 84.2091C177.877 82.0828 185.171 78.6077 191.724 74.0749Z" fill="url(#paint2_linear_280_134)"/>
<path d="M105.479 323.08C105.479 325.32 104.939 327.42 103.859 329.38C102.819 331.34 101.159 332.92 98.8793 334.12C96.6393 335.32 93.7993 335.92 90.3593 335.92H83.3393V352H74.9393V310.12H90.3593C93.5993 310.12 96.3593 310.68 98.6393 311.8C100.919 312.92 102.619 314.46 103.739 316.42C104.899 318.38 105.479 320.6 105.479 323.08ZM89.9993 329.14C92.3193 329.14 94.0393 328.62 95.1593 327.58C96.2793 326.5 96.8393 325 96.8393 323.08C96.8393 319 94.5593 316.96 89.9993 316.96H83.3393V329.14H89.9993ZM119.678 323.92C120.758 322.16 122.158 320.78 123.878 319.78C125.638 318.78 127.638 318.28 129.878 318.28V327.1H127.658C125.018 327.1 123.018 327.72 121.658 328.96C120.338 330.2 119.678 332.36 119.678 335.44V352H111.278V318.76H119.678V323.92ZM139.631 314.8C138.151 314.8 136.911 314.34 135.911 313.42C134.951 312.46 134.471 311.28 134.471 309.88C134.471 308.48 134.951 307.32 135.911 306.4C136.911 305.44 138.151 304.96 139.631 304.96C141.111 304.96 142.331 305.44 143.291 306.4C144.291 307.32 144.791 308.48 144.791 309.88C144.791 311.28 144.291 312.46 143.291 313.42C142.331 314.34 141.111 314.8 139.631 314.8ZM143.771 318.76V352H135.371V318.76H143.771ZM149.745 335.26C149.745 331.9 150.405 328.92 151.725 326.32C153.085 323.72 154.925 321.72 157.245 320.32C159.565 318.92 162.145 318.22 164.985 318.22C167.145 318.22 169.205 318.7 171.165 319.66C173.125 320.58 174.685 321.82 175.845 323.38V307.6H184.365V352H175.845V347.08C174.805 348.72 173.345 350.04 171.465 351.04C169.585 352.04 167.405 352.54 164.925 352.54C162.125 352.54 159.565 351.82 157.245 350.38C154.925 348.94 153.085 346.92 151.725 344.32C150.405 341.68 149.745 338.66 149.745 335.26ZM175.905 335.38C175.905 333.34 175.505 331.6 174.705 330.16C173.905 328.68 172.825 327.56 171.465 326.8C170.105 326 168.645 325.6 167.085 325.6C165.525 325.6 164.085 325.98 162.765 326.74C161.445 327.5 160.365 328.62 159.525 330.1C158.725 331.54 158.325 333.26 158.325 335.26C158.325 337.26 158.725 339.02 159.525 340.54C160.365 342.02 161.445 343.16 162.765 343.96C164.125 344.76 165.565 345.16 167.085 345.16C168.645 345.16 170.105 344.78 171.465 344.02C172.825 343.22 173.905 342.1 174.705 340.66C175.505 339.18 175.905 337.42 175.905 335.38ZM223.304 334.66C223.304 335.86 223.224 336.94 223.064 337.9H198.764C198.964 340.3 199.804 342.18 201.284 343.54C202.764 344.9 204.584 345.58 206.744 345.58C209.864 345.58 212.084 344.24 213.404 341.56H222.464C221.504 344.76 219.664 347.4 216.944 349.48C214.224 351.52 210.884 352.54 206.924 352.54C203.724 352.54 200.844 351.84 198.284 350.44C195.764 349 193.784 346.98 192.344 344.38C190.944 341.78 190.244 338.78 190.244 335.38C190.244 331.94 190.944 328.92 192.344 326.32C193.744 323.72 195.704 321.72 198.224 320.32C200.744 318.92 203.644 318.22 206.924 318.22C210.084 318.22 212.904 318.9 215.384 320.26C217.904 321.62 219.844 323.56 221.204 326.08C222.604 328.56 223.304 331.42 223.304 334.66ZM214.604 332.26C214.564 330.1 213.784 328.38 212.264 327.1C210.744 325.78 208.884 325.12 206.684 325.12C204.604 325.12 202.844 325.76 201.404 327.04C200.004 328.28 199.144 330.02 198.824 332.26H214.604ZM274.931 310.12V352H266.531V324.76L255.311 352H248.951L237.671 324.76V352H229.271V310.12H238.811L252.131 341.26L265.451 310.12H274.931ZM313.97 334.66C313.97 335.86 313.89 336.94 313.73 337.9H289.43C289.63 340.3 290.47 342.18 291.95 343.54C293.43 344.9 295.25 345.58 297.41 345.58C300.53 345.58 302.75 344.24 304.07 341.56H313.13C312.17 344.76 310.33 347.4 307.61 349.48C304.89 351.52 301.55 352.54 297.59 352.54C294.39 352.54 291.51 351.84 288.95 350.44C286.43 349 284.45 346.98 283.01 344.38C281.61 341.78 280.91 338.78 280.91 335.38C280.91 331.94 281.61 328.92 283.01 326.32C284.41 323.72 286.37 321.72 288.89 320.32C291.41 318.92 294.31 318.22 297.59 318.22C300.75 318.22 303.57 318.9 306.05 320.26C308.57 321.62 310.51 323.56 311.87 326.08C313.27 328.56 313.97 331.42 313.97 334.66ZM305.27 332.26C305.23 330.1 304.45 328.38 302.93 327.1C301.41 325.78 299.55 325.12 297.35 325.12C295.27 325.12 293.51 325.76 292.07 327.04C290.67 328.28 289.81 330.02 289.49 332.26H305.27ZM329.717 325.66V341.74C329.717 342.86 329.977 343.68 330.497 344.2C331.057 344.68 331.977 344.92 333.257 344.92H337.157V352H331.877C324.797 352 321.257 348.56 321.257 341.68V325.66H317.297V318.76H321.257V310.54H329.717V318.76H337.157V325.66H329.717ZM373.933 334.66C373.933 335.86 373.853 336.94 373.693 337.9H349.393C349.593 340.3 350.433 342.18 351.913 343.54C353.393 344.9 355.213 345.58 357.373 345.58C360.493 345.58 362.713 344.24 364.033 341.56H373.093C372.133 344.76 370.293 347.4 367.573 349.48C364.853 351.52 361.513 352.54 357.553 352.54C354.353 352.54 351.473 351.84 348.913 350.44C346.393 349 344.413 346.98 342.973 344.38C341.573 341.78 340.873 338.78 340.873 335.38C340.873 331.94 341.573 328.92 342.973 326.32C344.373 323.72 346.333 321.72 348.853 320.32C351.373 318.92 354.273 318.22 357.553 318.22C360.713 318.22 363.533 318.9 366.013 320.26C368.533 321.62 370.473 323.56 371.833 326.08C373.233 328.56 373.933 331.42 373.933 334.66ZM365.233 332.26C365.193 330.1 364.413 328.38 362.893 327.1C361.373 325.78 359.513 325.12 357.313 325.12C355.233 325.12 353.473 325.76 352.033 327.04C350.633 328.28 349.773 330.02 349.453 332.26H365.233ZM388.3 323.92C389.38 322.16 390.78 320.78 392.5 319.78C394.26 318.78 396.26 318.28 398.5 318.28V327.1H396.28C393.64 327.1 391.64 327.72 390.28 328.96C388.96 330.2 388.3 332.36 388.3 335.44V352H379.9V318.76H388.3V323.92Z" fill="white"/>
<defs>
<linearGradient id="paint0_linear_280_134" x1="200.335" y1="93.7665" x2="283.188" y2="313.162" gradientUnits="userSpaceOnUse">
<stop stop-color="#E50000"/>
<stop offset="0.143934" stop-color="#FF8D00"/>
<stop offset="0.302142" stop-color="#FFEE00"/>
<stop offset="0.531324" stop-color="#028121"/>
<stop offset="0.734463" stop-color="#004CFF"/>
<stop offset="1" stop-color="#770088"/>
</linearGradient>
<linearGradient id="paint1_linear_280_134" x1="75.529" y1="79.1667" x2="196.015" y2="250.008" gradientUnits="userSpaceOnUse">
<stop stop-color="white"/>
<stop offset="1" stop-color="white"/>
</linearGradient>
<linearGradient id="paint2_linear_280_134" x1="64.6474" y1="49.5735" x2="59.5802" y2="137.189" gradientUnits="userSpaceOnUse">
<stop stop-color="white"/>
<stop offset="1" stop-color="white"/>
</linearGradient>
</defs>
</svg>
