<svg width="35" height="34" viewBox="0 0 35 34" fill="none" xmlns="http://www.w3.org/2000/svg">
<path d="M10.5007 0.907715H24.5007C29.834 0.907715 34.1673 5.13272 34.1673 10.3327V23.9827C34.1673 26.4824 33.1489 28.8797 31.336 30.6472C29.5232 32.4147 27.0644 33.4077 24.5007 33.4077H10.5007C5.16732 33.4077 0.833984 29.1827 0.833984 23.9827V10.3327C0.833984 7.83305 1.85243 5.43576 3.66529 3.66823C5.47814 1.9007 7.93689 0.907715 10.5007 0.907715ZM10.1673 4.15771C8.57602 4.15771 7.0499 4.77405 5.92468 5.87114C4.79946 6.96823 4.16732 8.4562 4.16732 10.0077V24.3077C4.16732 27.5415 6.85065 30.1577 10.1673 30.1577H24.834C26.4253 30.1577 27.9514 29.5414 29.0766 28.4443C30.2018 27.3472 30.834 25.8592 30.834 24.3077V10.0077C30.834 6.77396 28.1507 4.15771 24.834 4.15771H10.1673ZM26.2507 6.59521C26.8032 6.59521 27.3331 6.80922 27.7238 7.19015C28.1145 7.57109 28.334 8.08774 28.334 8.62646C28.334 9.16519 28.1145 9.68184 27.7238 10.0628C27.3331 10.4437 26.8032 10.6577 26.2507 10.6577C25.6981 10.6577 25.1682 10.4437 24.7775 10.0628C24.3868 9.68184 24.1673 9.16519 24.1673 8.62646C24.1673 8.08774 24.3868 7.57109 24.7775 7.19015C25.1682 6.80922 25.6981 6.59521 26.2507 6.59521ZM17.5007 9.03271C19.7108 9.03271 21.8304 9.88874 23.3932 11.4125C24.956 12.9362 25.834 15.0028 25.834 17.1577C25.834 19.3126 24.956 21.3792 23.3932 22.903C21.8304 24.4267 19.7108 25.2827 17.5007 25.2827C15.2905 25.2827 13.1709 24.4267 11.6081 22.903C10.0453 21.3792 9.16732 19.3126 9.16732 17.1577C9.16732 15.0028 10.0453 12.9362 11.6081 11.4125C13.1709 9.88874 15.2905 9.03271 17.5007 9.03271ZM17.5007 12.2827C16.1746 12.2827 14.9028 12.7963 13.9651 13.7106C13.0274 14.6248 12.5007 15.8648 12.5007 17.1577C12.5007 18.4506 13.0274 19.6906 13.9651 20.6049C14.9028 21.5191 16.1746 22.0327 17.5007 22.0327C18.8267 22.0327 20.0985 21.5191 21.0362 20.6049C21.9739 19.6906 22.5007 18.4506 22.5007 17.1577C22.5007 15.8648 21.9739 14.6248 21.0362 13.7106C20.0985 12.7963 18.8267 12.2827 17.5007 12.2827Z" fill="#D8D8D8"/>
</svg>
