<svg width="34" height="28" viewBox="0 0 34 28" fill="none" xmlns="http://www.w3.org/2000/svg">
<path d="M33.9969 3.40771C32.7457 3.97646 31.3969 4.35021 29.9994 4.52896C31.4294 3.66772 32.5345 2.30271 33.0545 0.661465C31.7057 1.47396 30.2107 2.04272 28.6344 2.36772C27.3507 0.970215 25.547 0.157715 23.4995 0.157715C19.6807 0.157715 16.5607 3.27771 16.5607 7.12896C16.5607 7.68146 16.6257 8.21772 16.7395 8.72147C10.9545 8.42897 5.8032 5.65021 2.37445 1.44146C1.7732 2.46521 1.43195 3.66772 1.43195 4.93521C1.43195 7.35646 2.6507 9.50146 4.5357 10.7202C3.38195 10.7202 2.30945 10.3952 1.36695 9.90771V9.95646C1.36695 13.3365 3.77195 16.164 6.95695 16.7977C5.93438 17.0776 4.86086 17.1165 3.8207 16.9115C4.26206 18.2967 5.12645 19.5089 6.29235 20.3775C7.45826 21.2461 8.86705 21.7275 10.3207 21.754C7.8566 23.7047 4.8022 24.7591 1.65945 24.744C1.10695 24.744 0.554453 24.7115 0.00195312 24.6465C3.08945 26.629 6.76195 27.7827 10.6945 27.7827C23.4995 27.7827 30.5357 17.1552 30.5357 7.94146C30.5357 7.63271 30.5357 7.34021 30.5194 7.03146C31.8844 6.05646 33.0544 4.82147 33.9969 3.40771Z" fill="#D8D8D8"/>
</svg>
