<svg width="35" height="24" viewBox="0 0 35 24" fill="none" xmlns="http://www.w3.org/2000/svg">
<path d="M14.1673 17.0327L22.8173 12.1577L14.1673 7.28271V17.0327ZM33.434 4.30896C33.6507 5.07271 33.8007 6.09646 33.9007 7.39646C34.0173 8.69646 34.0673 9.81771 34.0673 10.7927L34.1673 12.1577C34.1673 15.7165 33.9007 18.3327 33.434 20.0065C33.0173 21.469 32.0506 22.4115 30.5506 22.8177C29.7673 23.029 28.334 23.1752 26.134 23.2727C23.9673 23.3865 21.984 23.4352 20.1507 23.4352L17.5007 23.5327C10.5173 23.5327 6.16732 23.2727 4.45065 22.8177C2.95065 22.4115 1.98398 21.469 1.56732 20.0065C1.35065 19.2427 1.20065 18.219 1.10065 16.919C0.983985 15.619 0.933984 14.4977 0.933984 13.5227L0.833984 12.1577C0.833984 8.59896 1.10065 5.98272 1.56732 4.30896C1.98398 2.84647 2.95065 1.90396 4.45065 1.49771C5.23398 1.28646 6.66732 1.14021 8.86732 1.04271C11.034 0.928965 13.0173 0.880215 14.8507 0.880215L17.5007 0.782715C24.484 0.782715 28.834 1.04271 30.5506 1.49771C32.0506 1.90396 33.0173 2.84647 33.434 4.30896Z" fill="#D8D8D8"/>
</svg>
